<svg xmlns="http://www.w3.org/2000/svg" width="24" height="24" viewBox="0 0 24 24" fill="none" class="fill-[#3C74FF] ui-open:fill-white"><path d="M20.6216 5.39052C20.057 5.72911 19.8736 6.47682 20.2123 7.04113C22.4987 10.822 21.92 15.6468 18.7868 18.7788C15.6535 21.9107 10.8266 22.5032 7.04416 20.2036C6.47961 19.8651 5.74569 20.0344 5.39285 20.6128C5.05412 21.1771 5.2376 21.9107 5.80215 22.2634C10.5303 25.1272 16.5709 24.3936 20.4804 20.4717C24.3899 16.5639 25.1239 10.5257 22.2729 5.79964C21.9342 5.23533 21.1861 5.05193 20.6216 5.39052Z"></path><path d="M5.22345 5.22123C8.3567 2.08931 13.1836 1.49679 16.9661 3.79635C17.446 4.09261 18.0528 3.99386 18.4339 3.61295C18.5045 3.54241 18.5609 3.47187 18.6174 3.38722C18.9561 2.82291 18.7726 2.08931 18.2081 1.73662C13.48 -1.12725 7.43931 -0.39365 3.5298 3.5283C-0.393818 7.43615 -1.12773 13.4743 1.73736 18.2004C2.07609 18.7647 2.82412 18.9481 3.38866 18.6095C3.95321 18.2709 4.13669 17.5232 3.79796 16.9589C1.49742 13.178 2.0902 8.35315 5.22345 5.22123Z"></path><path d="M17.1778 15.0966C17.6295 15.2518 18.1093 15.1249 18.4198 14.8145C18.5469 14.6875 18.6457 14.5464 18.7021 14.363C19.6054 11.7954 18.9421 8.90334 17.0226 6.98469C15.1031 5.06604 12.1957 4.40297 9.6411 5.30587C9.02009 5.53159 8.69548 6.20877 8.90718 6.82951C9.133 7.45025 9.81046 7.77472 10.4315 7.56311C12.1251 6.97058 14.0446 7.39382 15.3289 8.67762C16.5992 9.94732 17.0367 11.866 16.4439 13.573C16.2181 14.1937 16.5427 14.8709 17.1778 15.0966Z"></path><path d="M14.2563 18.7365C14.4398 18.68 14.595 18.5813 14.7221 18.4543C15.0326 18.1439 15.1596 17.6784 15.0185 17.2269C14.8067 16.5921 14.1293 16.2535 13.4942 16.4651C11.7864 17.0294 9.95162 16.5921 8.68138 15.3365C7.41114 14.0668 6.97362 12.2187 7.55228 10.5258C7.76399 9.90502 7.42526 9.21375 6.79014 9.00213C6.15502 8.79051 5.47756 9.1291 5.26586 9.76395C4.40492 12.3316 5.06826 15.1249 6.97362 17.0294C8.89309 18.934 11.6876 19.5829 14.2563 18.7365Z"></path><path d="M10.502 10.4975C9.66926 11.3299 9.66926 12.6701 10.502 13.5024C11.3347 14.3348 12.6755 14.3348 13.5082 13.5024C14.3409 12.6701 14.3409 11.3299 13.5082 10.4975C12.6755 9.66514 11.3347 9.66514 10.502 10.4975Z"></path></svg>