<svg xmlns="http://www.w3.org/2000/svg" width="150" height="40" viewBox="0 0 150 40" fill="none" class="h-[30px] w-[117px] md:h-[40px] md:w-[150px]"><g clip-path="url(#clip0_6196_17288)"><path d="M131.3 0.800781H18.7C8.4 0.800781 0 9.20078 0 19.5008V20.6008C0 30.9008 8.4 39.3008 18.7 39.3008H131.4C141.7 39.3008 150.1 30.9008 150.1 20.6008V19.5008C150 9.20078 141.6 0.800781 131.3 0.800781Z" fill="#FFD102"></path><path d="M114.198 20.4016C114.198 28.4016 107.698 34.9016 99.6984 34.9016H19.3984C11.3984 34.9016 4.89844 28.4016 4.89844 20.4016V19.6016C4.89844 11.6016 11.3984 5.10156 19.3984 5.10156H99.6984C107.698 5.10156 114.198 11.6016 114.198 19.6016V20.4016Z" fill="white"></path><path d="M122.098 22.8995C122.098 23.7995 121.298 24.4995 120.498 24.4995C119.598 24.4995 118.898 23.6995 118.898 22.8995C118.898 21.9995 119.598 21.2995 120.498 21.2995C121.298 21.1995 122.098 21.9995 122.098 22.8995Z" fill="white"></path><path d="M131.698 15.3004C131.098 15.4004 130.398 15.5004 129.398 15.5004C130.598 16.0004 131.198 16.7004 131.198 18.0004C131.198 19.9004 129.698 21.2004 127.198 21.2004C126.798 21.2004 126.398 21.2004 126.098 21.1004C125.898 21.2004 125.798 21.4004 125.798 21.6004C125.798 21.9004 125.898 22.2004 126.898 22.2004H128.398C130.598 22.2004 132.098 23.4004 132.098 25.0004C132.098 27.0004 130.298 28.2004 126.998 28.2004C123.698 28.2004 122.698 27.2004 122.398 25.7004C122.398 25.4004 122.598 25.2004 122.898 25.2004H124.498C124.698 25.2004 124.898 25.3004 124.998 25.6004C125.098 26.2004 125.598 26.4004 127.098 26.4004C128.798 26.4004 129.198 25.9004 129.198 25.3004C129.198 24.7004 128.798 24.4004 127.798 24.4004H126.398C124.298 24.4004 123.398 23.5004 123.398 22.5004C123.398 21.8004 123.898 21.1004 124.498 20.7004C123.298 20.0004 122.798 19.2004 122.798 18.0004C122.798 15.8004 124.498 14.5004 126.998 14.5004C128.798 14.5004 129.998 14.1004 130.998 13.5004C131.298 13.4004 131.598 13.5004 131.698 13.8004L131.998 14.9004C132.198 14.9004 131.998 15.2004 131.698 15.3004ZM125.598 17.7004C125.598 18.8004 126.198 19.3004 127.098 19.3004C127.998 19.3004 128.498 18.7004 128.498 17.6004C128.498 16.5004 127.998 16.0004 127.098 16.0004C126.198 16.1004 125.598 16.8004 125.598 17.7004Z" fill="white"></path><path d="M141.3 20.1996H135.3C135.5 21.8996 136.3 22.3996 137.5 22.3996C138.1 22.3996 138.7 22.1996 139.4 21.7996C139.6 21.6996 139.9 21.6996 140.1 21.8996L140.7 22.6996C140.9 22.8996 140.8 23.2996 140.6 23.3996C139.7 23.9996 138.6 24.3996 137.3 24.3996C134.1 24.3996 132.5 22.2996 132.5 19.2996C132.5 16.3996 134.1 14.0996 137 14.0996C139.7 14.0996 141.4 15.8996 141.4 18.9996C141.4 19.4996 141.4 19.8996 141.3 20.1996ZM138.6 18.3996C138.6 17.0996 138.2 16.1996 137 16.1996C136 16.1996 135.5 16.7996 135.4 18.4996H138.6V18.3996Z" fill="white"></path><path d="M105.397 24.4008C105.497 24.6008 105.397 24.9008 105.197 25.1008C104.497 25.5008 103.597 25.7008 102.797 25.7008C100.497 25.7008 99.2969 24.4008 99.2969 21.9008V17.0008H98.2969C97.9969 17.0008 97.7969 16.8008 97.7969 16.5008V15.3008C97.7969 15.0008 97.9969 14.8008 98.2969 14.8008H99.2969V13.0008C99.2969 12.7008 99.4969 12.5008 99.7969 12.5008L101.897 12.3008C102.197 12.3008 102.397 12.5008 102.397 12.8008V14.9008H104.297C104.597 14.9008 104.797 15.2008 104.797 15.5008L104.597 16.7008C104.597 16.9008 104.297 17.1008 104.097 17.1008H102.497V21.9008C102.497 22.9008 102.797 23.3008 103.497 23.3008C103.697 23.3008 103.997 23.3008 104.197 23.2008C104.497 23.1008 104.697 23.2008 104.797 23.4008L105.397 24.4008Z" fill="#414042"></path><path d="M28.1992 17.6017V24.8017C28.1992 25.1017 27.9992 25.3017 27.6992 25.3017H25.5992C25.2992 25.3017 25.0992 25.1017 25.0992 24.8017V18.2017C25.0992 17.1017 24.6992 16.8017 24.1992 16.8017C23.5992 16.8017 23.0992 17.3017 22.5992 18.2017V24.9017C22.5992 25.2017 22.2992 25.4017 22.0992 25.4017H19.8992C19.5992 25.4017 19.3992 25.2017 19.3992 24.9017V18.3017C19.3992 17.2017 18.9992 16.9017 18.4992 16.9017C17.8992 16.9017 17.3992 17.4017 16.8992 18.3017V25.0017C16.8992 25.3017 16.6992 25.5017 16.3992 25.5017H14.1992C13.8992 25.5017 13.6992 25.3017 13.6992 25.0017V15.5017C13.6992 15.2017 13.9992 15.0017 14.1992 15.0017H15.9992C16.2992 15.0017 16.3992 15.2017 16.4992 15.4017L16.6992 16.2017C17.4992 15.1017 18.4992 14.6017 19.6992 14.6017C20.8992 14.6017 21.7992 15.2017 22.1992 16.2017C22.9992 15.1017 23.9992 14.6017 25.2992 14.6017C27.0992 14.4017 28.1992 15.6017 28.1992 17.6017Z" fill="#414042"></path><path d="M55.3984 17.6004V24.8004C55.3984 25.1004 55.1984 25.3004 54.8984 25.3004H52.7984C52.4984 25.3004 52.2984 25.1004 52.2984 24.8004V18.2004C52.2984 17.1004 51.8984 16.8004 51.3984 16.8004C50.7984 16.8004 50.2984 17.3004 49.7984 18.2004V24.9004C49.7984 25.2004 49.4984 25.4004 49.2984 25.4004H47.0984C46.7984 25.4004 46.5984 25.2004 46.5984 24.9004V18.3004C46.5984 17.2004 46.1984 16.9004 45.6984 16.9004C45.0984 16.9004 44.5984 17.4004 44.0984 18.3004V25.0004C44.0984 25.3004 43.8984 25.5004 43.5984 25.5004H41.3984C41.0984 25.5004 40.8984 25.3004 40.8984 25.0004V15.5004C40.8984 15.2004 41.1984 15.0004 41.3984 15.0004H43.1984C43.4984 15.0004 43.5984 15.2004 43.6984 15.4004L43.9984 16.0004C44.7984 14.9004 45.7984 14.4004 46.9984 14.4004C48.1984 14.4004 49.0984 15.0004 49.4984 16.0004C50.2984 14.9004 51.2984 14.4004 52.5984 14.4004C54.2984 14.4004 55.3984 15.6004 55.3984 17.6004Z" fill="#414042"></path><path d="M36.3005 25.3008C35.5005 27.8008 33.9005 29.3008 30.9005 29.6008C30.6005 29.6008 30.4005 29.5008 30.3005 29.2008L30.1005 28.0008C30.1005 27.7008 30.2005 27.5008 30.5005 27.5008C31.9005 27.2008 32.7005 26.8008 33.2005 25.9008C32.9005 25.8008 32.4005 25.3008 32.3005 24.9008L29.4005 15.5008C29.3005 15.2008 29.5005 14.8008 29.9005 14.8008H32.1005C32.4005 14.8008 32.5005 15.0008 32.6005 15.2008L34.4005 23.3008L36.4005 15.2008C36.4005 15.0008 36.7005 14.8008 36.9005 14.8008H39.0005C39.3005 14.8008 39.6005 15.1008 39.5005 15.5008L36.3005 25.3008Z" fill="#414042"></path><path d="M97.0969 19.8004C97.0969 16.4004 95.2969 14.4004 92.1969 14.4004C88.9969 14.4004 87.2969 16.9004 87.2969 20.0004C87.2969 23.3004 89.0969 25.5004 92.5969 25.5004C93.9969 25.5004 95.0969 25.1004 95.9969 24.5004C95.9969 24.5004 96.0969 24.5004 96.0969 24.4004L96.1969 24.3004C96.3969 24.1004 96.4969 23.8004 96.2969 23.6004L95.5969 22.6004C95.2969 22.3004 94.9969 22.4004 94.9969 22.4004C94.8969 22.5004 94.6969 22.6004 94.5969 22.6004C93.9969 22.9004 93.3969 23.1004 92.7969 23.1004C91.4969 23.1004 90.5969 22.6004 90.3969 20.7004H96.9969C97.0969 20.6004 97.0969 20.1004 97.0969 19.8004ZM93.9969 19.0004H90.4969C90.5969 17.1004 91.2969 16.4004 92.2969 16.4004C93.4969 16.4004 93.9969 17.4004 93.9969 18.8004V19.0004Z" fill="#414042"></path><path d="M66.7992 23.9L66.3992 25.2C66.2992 25.4 66.0992 25.6 65.8992 25.5C64.8992 25.4 64.1992 25 63.7992 24C62.9992 25.2 61.8992 25.6 60.5992 25.6C58.4992 25.6 57.1992 24.2 57.1992 22.3C57.1992 20 58.8992 18.8 62.0992 18.8H63.1992V18.3C63.1992 17.1 62.6992 16.7 61.3992 16.7C60.7992 16.7 59.9992 16.8 59.0992 17.1C58.7992 17.2 58.5992 17 58.4992 16.8L58.0992 15.7C57.9992 15.4 58.0992 15.2 58.3992 15.1C59.5992 14.7 60.7992 14.5 61.8992 14.5C64.8992 14.5 66.2992 15.8 66.2992 18.2V22.3C66.2992 22.9 66.3992 23.2 66.6992 23.4C66.7992 23.4 66.8992 23.7 66.7992 23.9ZM63.0992 22.3V20.4H62.2992C60.8992 20.4 60.1992 20.9 60.1992 21.9C60.1992 22.7 60.6992 23.2 61.3992 23.2C62.1992 23.3 62.7992 23 63.0992 22.3Z" fill="#414042"></path><path d="M75.1984 14.5C75.0984 14.5 75.0984 14.5 75.0984 14.5C74.9984 14.5 74.7984 14.5 74.6984 14.5C73.4984 14.5 72.4984 15.4 71.9984 16.8L71.7984 15.5V15.4V15.3C71.7984 15 71.4984 14.8 71.1984 14.8H70.5984H70.0984H69.3984C69.0984 14.8 68.8984 15 68.8984 15.3V15.5V24.5V24.6V24.7C68.8984 25 69.0984 25.2 69.3984 25.2H71.4984C71.7984 25.2 71.9984 25 71.9984 24.7V24.5V20C72.3984 18.4 72.8984 17.5 74.1984 17.5C74.2984 17.5 74.4984 17.5 74.5984 17.5H74.6984C74.8984 17.5 75.1984 17.3 75.1984 17.1L75.4984 15.1C75.6984 14.7 75.3984 14.5 75.1984 14.5Z" fill="#414042"></path><path d="M80.1 10.9008V10.8008C80.1 10.5008 79.8 10.3008 79.6 10.3008L77.5 10.5008C77.2 10.5008 77 10.8008 77 11.0008V24.4008V24.5008V24.6008C77 24.9008 77.2 25.1008 77.5 25.1008H79.6C79.9 25.1008 80.1 24.9008 80.1 24.6008V24.5008V10.9008Z" fill="#414042"></path><path d="M86.6008 24.8008L83.5008 19.4008L86.4008 15.3008V15.2008C86.5008 15.0008 86.5008 14.8008 86.2008 14.8008H83.9008C83.6008 14.8008 83.3008 15.0008 83.2008 15.2008L80.3008 19.6008L83.1008 24.8008C83.3008 25.1008 83.6008 25.3008 83.9008 25.3008H86.4008C86.6008 25.3008 86.7008 25.0008 86.6008 24.8008Z" fill="#414042"></path></g><defs><clipPath id="clip0_6196_17288"><rect width="150" height="40" fill="white"></rect></clipPath></defs></svg>