<svg xmlns="http://www.w3.org/2000/svg" width="16" height="16" fill="none" class="ml-1"><g clip-path="url(#Discount_svg__a)"><path fill="#FE3155" d="M15.58 6.712a2.344 2.344 0 0 0-1.31-3.162l-.16-.06a2.74 2.74 0 0 1-1.6-1.6l-.06-.16A2.342 2.342 0 0 0 9.287.42l-.156.071a2.74 2.74 0 0 1-2.264 0l-.155-.07A2.342 2.342 0 0 0 3.55 1.73l-.06.16a2.74 2.74 0 0 1-1.6 1.6l-.16.06A2.341 2.341 0 0 0 .42 6.713l.07.155c.327.72.327 1.545 0 2.264l-.07.156a2.344 2.344 0 0 0 1.31 3.162l.16.06c.739.277 1.322.86 1.6 1.6l.06.16a2.341 2.341 0 0 0 3.162 1.31l.155-.071a2.74 2.74 0 0 1 2.264 0l.156.07a2.344 2.344 0 0 0 3.162-1.31l.06-.16c.277-.739.86-1.322 1.6-1.6l.16-.06a2.342 2.342 0 0 0 1.31-3.162l-.071-.155a2.74 2.74 0 0 1 0-2.264z"></path><path fill="#fff" d="M5.5 7a1.5 1.5 0 1 0 0-3 1.5 1.5 0 0 0 0 3M10.5 12a1.5 1.5 0 1 0 0-3 1.5 1.5 0 0 0 0 3M9.983 4.672l-5.31 5.311a.95.95 0 0 0 1.343 1.344l5.311-5.31a.95.95 0 1 0-1.344-1.345"></path></g><defs><clipPath id="Discount_svg__a"><path fill="#fff" d="M0 0h16v16H0z"></path></clipPath></defs></svg>