<svg xmlns="http://www.w3.org/2000/svg" width="213" height="66" viewBox="0 0 213 66" fill="none"><path d="M185.273 18.8382C181.623 16.6029 180.757 14.5842 181.707 10.5306C182.571 6.85064 183.903 4.80852 185.366 4.92765C186.032 4.98195 186.568 5.241 186.876 5.6569C187.19 6.07982 187.276 6.67259 187.124 7.37108C186.715 9.25932 185.816 10.7127 184.721 11.2588C184.043 11.5971 183.308 11.5885 182.537 11.2328C182.508 11.2192 182.475 11.2124 182.443 11.2129C182.41 11.2134 182.378 11.2212 182.349 11.2357C182.32 11.2502 182.295 11.271 182.275 11.2966C182.255 11.3223 182.241 11.3521 182.234 11.3838C181.727 13.7107 182.369 15.088 182.397 15.1456C182.422 15.1967 182.465 15.2361 182.518 15.2555C183.143 15.4838 183.609 15.6371 184.367 15.6849C189.761 16.0277 192.564 11.8569 192.893 7.83984C193.047 5.94327 192.524 4.26963 191.379 3.00004C190.189 1.68056 188.39 0.887651 186.176 0.706923C180.955 0.28187 177.331 3.29956 175.973 9.20742C175.23 12.4401 176.071 15.6361 177.117 17.6206C172.863 16.2261 166.969 17.1559 165.781 17.7502C165.735 17.7733 165.698 17.8121 165.678 17.8596L163.918 22.0107C163.901 22.0503 163.896 22.0941 163.904 22.1363C163.913 22.1786 163.933 22.2176 163.963 22.2482C163.994 22.2789 164.032 22.2998 164.074 22.3084C164.117 22.317 164.16 22.3128 164.2 22.2964C169.755 20.0196 179.997 21.1913 184.384 26.0622C184.404 26.0848 184.429 26.1029 184.457 26.1152C184.485 26.1276 184.515 26.134 184.545 26.134H192.701C192.737 26.1341 192.772 26.1252 192.804 26.1083C192.836 26.0914 192.862 26.067 192.882 26.0372C192.923 25.9768 192.93 25.9001 192.902 25.8331C192.013 23.7042 189.589 21.4814 185.273 18.8382Z" fill="#3C434C"></path><path d="M47.6826 15.9105C47.6937 15.958 47.7205 16.0003 47.7586 16.0307C47.7967 16.0611 47.8439 16.0779 47.8926 16.0782L52.9875 16.1144H52.9891C53.0192 16.1144 53.049 16.1082 53.0765 16.096C53.1041 16.0839 53.1288 16.0662 53.1492 16.044C53.1695 16.0218 53.185 15.9956 53.1947 15.9671C53.2044 15.9386 53.208 15.9084 53.2054 15.8784C53.1842 15.6346 53.1613 15.4205 53.1395 15.2172C53.0525 14.4053 52.9838 13.764 53.1258 12.0245C53.3449 9.34008 54.1224 4.87221 56.8587 5.09355C57.6365 5.157 58.4092 5.49678 58.2427 7.53533C58.0013 10.4929 56.9413 12.7341 55.3518 15.8157C55.3347 15.8487 55.3264 15.8855 55.3276 15.9226C55.3289 15.9597 55.3396 15.9958 55.3588 16.0276C55.378 16.0593 55.405 16.0857 55.4373 16.104C55.4695 16.1224 55.506 16.1322 55.5431 16.1325L60.9624 16.1733H60.964C61.0377 16.1733 61.1065 16.136 61.1465 16.074C63.0272 13.1627 63.8814 11.521 64.1673 8.01888C64.339 5.9155 63.8156 4.13676 62.6536 2.87482C61.5134 1.63662 59.7516 0.887547 57.5583 0.708538C54.8538 0.487615 52.5924 1.14254 50.8348 2.65438C48.7361 4.45941 47.4891 7.41592 47.2288 11.2043C47.1087 12.951 47.5268 15.2447 47.6826 15.9105Z" fill="#3C434C"></path><path d="M139.719 11.4147C139.937 8.74872 138.917 6.87783 138.016 5.22717C137.336 3.98037 136.749 2.90349 136.844 1.73893L136.877 1.33789C136.882 1.28048 136.863 1.22357 136.826 1.17967C136.789 1.13576 136.736 1.10846 136.678 1.10376L131.341 0.668106C131.29 0.663914 131.239 0.678057 131.197 0.708014C131.155 0.737972 131.125 0.781801 131.112 0.831699C131.022 1.19172 130.951 1.62909 130.919 2.0317C130.745 4.15875 131.598 5.65484 132.423 7.10157C133.167 8.40563 133.869 9.6375 133.739 11.2371C133.671 12.0576 133.392 12.729 132.931 13.1789C132.482 13.6165 131.884 13.8192 131.204 13.7627C130.058 13.6692 129.521 13.0821 129.607 12.018C129.681 11.1138 130 10.0908 130.555 8.97749C130.568 8.95043 130.576 8.92087 130.577 8.89069C130.578 8.86051 130.573 8.83037 130.563 8.8022C130.552 8.77403 130.535 8.74844 130.514 8.72707C130.492 8.70571 130.467 8.68903 130.438 8.67811L126.073 6.98629C126.029 6.9691 125.98 6.96699 125.934 6.98028C125.889 6.99357 125.848 7.02153 125.82 7.05986C124.761 8.49559 124.105 10.1703 123.974 11.7756C123.843 13.3756 124.381 14.8947 125.488 16.0527C126.651 17.2708 128.332 18.0015 130.348 18.1662L130.379 18.1686C130.731 18.1975 131.084 18.2122 131.437 18.2124C136.102 18.2121 139.38 15.5726 139.719 11.4147Z" fill="#3C434C"></path><path d="M164.023 15.8784C164.002 15.6346 163.979 15.4205 163.957 15.2172C163.87 14.4053 163.801 13.764 163.943 12.0245C164.106 10.0276 164.465 8.35405 164.982 7.1846C165.636 5.70456 166.542 5.00029 167.676 5.09355C168.454 5.157 169.227 5.49678 169.06 7.53526C168.819 10.4927 167.759 12.734 166.169 15.8157C166.152 15.8487 166.144 15.8855 166.145 15.9226C166.146 15.9597 166.157 15.9959 166.176 16.0276C166.195 16.0594 166.222 16.0857 166.255 16.1041C166.287 16.1224 166.323 16.1322 166.36 16.1325L171.78 16.1733H171.782C171.855 16.1733 171.924 16.136 171.964 16.074C173.845 13.1627 174.699 11.521 174.985 8.01888C175.156 5.91536 174.633 4.13663 173.471 2.87482C172.331 1.63655 170.569 0.887547 168.376 0.708538C165.672 0.487477 163.41 1.14254 161.652 2.65431C159.554 4.45941 158.307 7.41592 158.046 11.2043C157.926 12.951 158.344 15.2447 158.5 15.9105C158.511 15.958 158.538 16.0003 158.576 16.0307C158.614 16.0611 158.661 16.0778 158.71 16.0782L163.805 16.1144H163.806C163.837 16.1145 163.866 16.1082 163.894 16.0961C163.922 16.084 163.946 16.0663 163.967 16.0441C163.987 16.0219 164.003 15.9957 164.012 15.9671C164.022 15.9386 164.026 15.9084 164.023 15.8784Z" fill="#3C434C"></path><path d="M203.269 0.706417C200.919 0.514538 198.852 1.02321 197.29 2.1771C195.691 3.35859 194.752 5.12508 194.576 7.28586C194.571 7.34282 194.589 7.39933 194.626 7.44311C194.663 7.48689 194.715 7.51442 194.772 7.51972L199.719 7.98214C199.747 7.98506 199.776 7.98215 199.804 7.9736C199.831 7.96505 199.857 7.95103 199.878 7.93238C199.9 7.91389 199.919 7.89122 199.932 7.86568C199.945 7.84014 199.953 7.81224 199.955 7.78358C200.063 6.46651 200.762 4.97463 202.382 5.10711C202.836 5.14414 203.147 5.28317 203.332 5.53203C203.593 5.88207 203.629 6.48331 203.442 7.36727L201.015 18.0712C200.658 19.6791 199.814 20.5465 198.707 20.4584C198.147 20.4127 197.736 20.2289 197.486 19.912C197.239 19.5988 197.137 19.1454 197.185 18.5648C197.28 17.3976 198.243 14.7144 198.893 13.5638C198.909 13.5362 198.918 13.5056 198.92 13.4741C198.923 13.4426 198.918 13.4109 198.907 13.3813C198.896 13.3517 198.879 13.3248 198.856 13.3026C198.834 13.2803 198.807 13.2633 198.777 13.2526L194.281 11.6434C194.237 11.6278 194.19 11.6265 194.145 11.6398C194.101 11.6531 194.062 11.6802 194.034 11.7173C193.431 12.5177 191.454 15.349 191.327 18.1714C191.165 21.7655 193.849 24.504 197.853 24.831C198.217 24.8612 198.583 24.8765 198.948 24.877C200.934 24.877 202.592 24.3972 203.885 23.4454C205.351 22.3672 206.36 20.6783 206.884 18.4242L209.167 8.33101C209.167 8.33073 209.167 8.33059 209.167 8.33025C209.628 6.26176 209.353 4.46341 208.37 3.12976C207.34 1.73278 205.577 0.894787 203.269 0.706417Z" fill="#3C434C"></path><path d="M158.092 1.85655C158.073 1.8314 158.05 1.8105 158.022 1.79528C157.995 1.78006 157.965 1.77086 157.934 1.76831L152.535 1.32764C152.483 1.3236 152.431 1.33845 152.389 1.36948C152.347 1.4005 152.317 1.44564 152.305 1.49667L150.564 9.25966C149.915 9.76386 149.195 10.0001 148.478 9.94074C147.875 9.89153 147.2 9.61761 147.339 7.92284C147.493 6.03261 148.458 3.41911 149.738 1.41959C149.78 1.35538 149.784 1.27423 149.75 1.20596C149.733 1.17238 149.708 1.14367 149.677 1.12263C149.646 1.10158 149.611 1.08892 149.573 1.08586L144.452 0.6679C144.378 0.662739 144.309 0.692743 144.264 0.749592C142.588 2.8679 141.51 5.50666 141.307 7.98939C141.015 11.5672 142.808 13.951 145.986 14.2105C147.296 14.3177 148.473 14.0509 149.651 13.3747L148.426 18.9251C148.269 19.6274 148.048 20.0184 147.686 20.2329C147.103 20.5796 146.041 20.515 144.347 20.0304C140.265 18.8633 136.889 18.7286 134.314 19.6314C134.286 19.6414 134.26 19.6573 134.238 19.6781C134.215 19.6988 134.198 19.7239 134.186 19.7518L132.231 24.3792C132.216 24.4146 132.211 24.4532 132.216 24.4913C132.22 24.5293 132.235 24.5654 132.259 24.5958C132.282 24.6261 132.313 24.6498 132.348 24.6644C132.384 24.679 132.423 24.684 132.461 24.679C137.562 23.9804 139.18 24.4408 142.118 25.2769C142.71 25.4452 143.38 25.636 144.136 25.8329C144.918 26.037 145.698 26.1378 146.459 26.1378C147.971 26.1378 149.411 25.7393 150.651 24.9595C152.554 23.7625 153.829 21.7542 154.337 19.1516C155.167 14.9007 158.098 2.16178 158.128 2.03356C158.135 2.00318 158.135 1.97165 158.129 1.94111C158.123 1.91057 158.11 1.88173 158.092 1.85655Z" fill="#3C434C"></path><path d="M122.107 2.40782C121.068 1.44161 119.573 0.853586 117.782 0.707544C115.625 0.531149 113.706 0.932251 112.234 1.86694C110.872 2.73095 110.027 4.01017 109.916 5.37652C109.874 5.88512 109.933 6.37287 109.985 6.80329L110.007 6.97955C110.01 7.00849 110.019 7.03647 110.033 7.0618C110.048 7.08713 110.067 7.10929 110.09 7.12697C110.114 7.14462 110.14 7.15745 110.168 7.16472C110.196 7.17199 110.226 7.17354 110.255 7.16929L115.066 6.44403C115.121 6.43553 115.172 6.40573 115.206 6.3609C115.24 6.31606 115.255 6.25971 115.249 6.2037C115.232 6.0536 115.215 5.91155 115.228 5.74809C115.252 5.45298 115.407 5.19324 115.662 5.01657C115.959 4.81154 116.374 4.72441 116.861 4.76385C117.367 4.80514 117.959 5.00432 117.901 5.71774C117.831 6.56674 117.334 7.01203 114.524 7.97542C109.745 9.61397 106.467 11.8575 106.008 17.4803C105.837 19.5855 106.371 21.3758 107.554 22.6582C108.717 23.9183 110.498 24.6796 112.705 24.8598C113.039 24.8871 113.367 24.9005 113.691 24.9005C116.024 24.9005 118.091 24.1975 119.715 22.8423C121.49 21.3612 122.579 19.1821 122.781 16.7065C122.957 14.5451 122.226 12.6825 120.606 11.1702C120.575 11.1413 120.536 11.1221 120.494 11.115C120.452 11.1079 120.409 11.1132 120.371 11.1302C120.171 11.2182 119.811 11.3686 119.385 11.5476C118.545 11.8992 117.5 12.337 116.824 12.6498C116.775 12.6724 116.736 12.7125 116.715 12.7622C116.694 12.8119 116.692 12.8676 116.71 12.9185C116.947 13.5971 117.009 14.3639 116.917 15.4825C116.72 17.9015 115.699 20.665 113.466 20.4797C112.662 20.4141 111.762 20.0583 111.94 17.8713C112.201 14.675 113.526 12.8829 116.369 11.8787C116.571 11.8074 116.811 11.7251 117.073 11.6354C117.817 11.3804 118.743 11.063 119.482 10.762C122.078 9.70426 123.319 8.21307 123.506 5.92683C123.614 4.59771 123.118 3.34795 122.107 2.40782Z" fill="#3C434C"></path><path d="M13.3019 16.0782L18.3969 16.1144H18.3985C18.4286 16.1143 18.4584 16.1081 18.4859 16.0959C18.5135 16.0838 18.5382 16.0661 18.5585 16.0439C18.5789 16.0217 18.5944 15.9955 18.6041 15.967C18.6137 15.9385 18.6174 15.9083 18.6148 15.8784C18.5952 15.6579 18.5732 15.4377 18.5489 15.2177C18.4618 14.4057 18.3931 13.7644 18.5352 12.0245C18.6982 10.0276 19.0574 8.35405 19.5741 7.18453C20.2282 5.70449 21.1336 4.9996 22.2682 5.09354C23.0459 5.15693 23.8185 5.49678 23.6521 7.53526C23.4106 10.493 22.3506 12.7342 20.761 15.8157C20.744 15.8487 20.7358 15.8855 20.737 15.9226C20.7383 15.9596 20.749 15.9958 20.7682 16.0275C20.7874 16.0593 20.8144 16.0856 20.8466 16.104C20.8788 16.1223 20.9152 16.1321 20.9523 16.1325L26.3718 16.1733H26.3735C26.4098 16.1734 26.4455 16.1643 26.4774 16.1469C26.5092 16.1295 26.5362 16.1044 26.5559 16.0739C28.4367 13.1625 29.2908 11.5206 29.5766 8.01881C29.7482 5.91536 29.2248 4.13669 28.063 2.87475C26.9228 1.63655 25.1609 0.887477 22.9676 0.708536C20.2644 0.487613 18.0017 1.14247 16.2442 2.65417C14.1455 4.45927 12.8986 7.41592 12.6382 11.2043C12.5181 12.9496 12.9361 15.2443 13.0918 15.9104C13.1029 15.9579 13.1297 16.0002 13.1678 16.0307C13.2059 16.0611 13.2531 16.0778 13.3019 16.0782Z" fill="#3C434C"></path><path d="M86.7794 24.831C87.1436 24.8612 87.509 24.8765 87.8745 24.877C89.8606 24.877 91.5179 24.3971 92.8118 23.4454C94.2778 22.3673 95.2863 20.6783 95.81 18.4244L98.0936 8.331L98.0937 8.33025C98.5548 6.26169 98.279 4.46341 97.2964 3.12975C96.2669 1.73278 94.5031 0.894783 92.1957 0.706415C89.8456 0.514259 87.7783 1.023 86.2162 2.1771C84.617 3.35859 83.6785 5.12508 83.5021 7.28578C83.4975 7.34276 83.5155 7.39929 83.5522 7.44308C83.5889 7.48688 83.6415 7.51442 83.6984 7.51971L88.6451 7.98214C88.6737 7.98504 88.7026 7.98214 88.7301 7.97359C88.7575 7.96503 88.783 7.95102 88.8049 7.93238C88.8269 7.91389 88.845 7.89122 88.8583 7.86568C88.8715 7.84014 88.8795 7.81224 88.8818 7.78358C88.9894 6.4663 89.6949 4.97456 91.3086 5.10725C91.7624 5.14428 92.073 5.28316 92.2586 5.53203C92.5193 5.88206 92.555 6.4833 92.368 7.36727L89.9414 18.0711C89.5842 19.6787 88.7443 20.5483 87.633 20.4586C86.5125 20.3671 86.0146 19.7476 86.1111 18.5648C86.2065 17.3976 87.1699 14.7144 87.8196 13.5638C87.835 13.5362 87.8443 13.5056 87.8468 13.4741C87.8493 13.4426 87.8448 13.4109 87.8338 13.3813C87.8227 13.3516 87.8054 13.3248 87.7829 13.3025C87.7604 13.2803 87.7333 13.2633 87.7036 13.2526L83.2074 11.6434C83.1638 11.6277 83.1163 11.6265 83.0719 11.6398C83.0275 11.6531 82.9885 11.6802 82.9607 11.7172C82.3577 12.5177 80.3806 15.349 80.2535 18.1714C80.0916 21.7655 82.7751 24.504 86.7794 24.831Z" fill="#3C434C"></path><path d="M35.2229 14.2105C36.5329 14.318 37.7093 14.0509 38.8875 13.3747L37.6628 18.9251C37.5054 19.6274 37.2841 20.0184 36.9229 20.2329C36.3395 20.5796 35.2784 20.5152 33.5835 20.0304C29.5011 18.8628 26.1256 18.7287 23.5511 19.6314C23.5225 19.6414 23.4963 19.6573 23.4742 19.6781C23.4522 19.6988 23.4346 19.7239 23.4228 19.7518L21.4677 24.3792C21.4527 24.4146 21.4474 24.4532 21.4523 24.4913C21.4572 24.5293 21.4721 24.5654 21.4954 24.5958C21.5189 24.6261 21.5498 24.6497 21.5852 24.6643C21.6206 24.6789 21.6592 24.6839 21.6972 24.679C26.7985 23.9808 28.4169 24.441 31.3553 25.2769C31.9466 25.4452 32.617 25.636 33.3725 25.8329C34.1549 26.037 34.9344 26.1378 35.6957 26.1378C37.208 26.1378 38.6473 25.7393 39.8874 24.9595C41.7906 23.7624 43.0653 21.7542 43.5737 19.1516C44.4041 14.9007 47.3348 2.16192 47.3644 2.0337C47.3714 2.00332 47.3718 1.97179 47.3655 1.94126C47.3592 1.91073 47.3464 1.88191 47.328 1.85675C47.3096 1.83159 47.286 1.81069 47.2588 1.79545C47.2316 1.78022 47.2015 1.77101 47.1704 1.76845L41.7716 1.32771C41.6652 1.32062 41.5657 1.39103 41.5419 1.49667L39.8008 9.25966C39.1523 9.76386 38.4333 9.99999 37.7142 9.94074C37.2662 9.90426 36.9602 9.73454 36.7788 9.42222C36.5892 9.09586 36.5207 8.59139 36.5753 7.92284C36.7297 6.03288 37.694 3.41932 38.9751 1.41959C38.9953 1.38803 39.0071 1.35176 39.0091 1.31432C39.0112 1.27687 39.0035 1.23954 38.9868 1.20596C38.9702 1.17238 38.9452 1.14367 38.9142 1.12263C38.8832 1.10158 38.8472 1.08892 38.8099 1.08586L33.6886 0.6679C33.6529 0.664816 33.6171 0.670671 33.5843 0.684937C33.5515 0.6992 33.5227 0.721422 33.5007 0.749592C31.8242 2.8679 30.7465 5.5068 30.5437 7.98939C30.3978 9.7777 30.7738 11.3025 31.6313 12.3992C32.4608 13.4601 33.7029 14.0863 35.2229 14.2105Z" fill="#3C434C"></path><path d="M54.9648 17.7503C54.9186 17.7733 54.8822 17.8121 54.8621 17.8597L53.1018 22.0107C53.0849 22.0503 53.0802 22.0941 53.0883 22.1364C53.0964 22.1787 53.1169 22.2177 53.1471 22.2483C53.1774 22.2789 53.2161 22.2999 53.2583 22.3085C53.3005 22.3171 53.3443 22.3129 53.3842 22.2965C58.9388 20.0196 69.1805 21.1914 73.5676 26.0622C73.588 26.0848 73.6129 26.1029 73.6407 26.1153C73.6685 26.1276 73.6985 26.134 73.729 26.134H81.8856C81.9213 26.1341 81.9566 26.1252 81.9881 26.1083C82.0196 26.0914 82.0465 26.067 82.0663 26.0372C82.1066 25.9768 82.114 25.9002 82.0859 25.8331C81.1968 23.7042 78.7725 21.4815 74.4567 18.8383C70.8069 16.603 69.9406 14.5843 70.8915 10.5307C71.755 6.85071 73.0831 4.81258 74.5496 4.92765C75.2155 4.98202 75.7518 5.241 76.0603 5.6569C76.3738 6.07989 76.4595 6.67266 76.308 7.37136C75.8986 9.25953 75.0002 10.7128 73.905 11.2589C73.2268 11.5969 72.4921 11.5886 71.7211 11.2329C71.6916 11.2193 71.6594 11.2125 71.6269 11.2129C71.5944 11.2134 71.5624 11.2212 71.5333 11.2357C71.5042 11.2502 71.4787 11.271 71.4587 11.2967C71.4388 11.3223 71.4248 11.3521 71.4179 11.3839C70.9109 13.7107 71.5533 15.088 71.581 15.1456C71.6055 15.1966 71.649 15.2361 71.7023 15.2556C72.327 15.4838 72.7931 15.637 73.5513 15.6849C78.9396 16.0255 81.7485 11.8569 82.0766 7.83991C82.4009 3.8664 79.7644 1.0666 75.36 0.70713C70.1404 0.281183 66.5156 3.2997 65.1572 9.20749C64.4138 12.4403 65.2554 15.6363 66.3008 17.6206C62.0464 16.2261 56.1534 17.156 54.9648 17.7503Z" fill="#3C434C"></path><path d="M0.0805267 25.8128L8.27132 18.3116C8.45997 18.1388 8.76217 18.1994 8.86967 18.4315L13.0091 27.3661C13.0903 27.5414 12.9479 27.7379 12.7561 27.7153L9.63726 27.3483C10.4511 33.2296 13.6512 40.5241 19.8681 41.7175C7.83677 42.433 2.69795 33.5829 2.54399 26.5139L0.218517 26.2403C0.00846874 26.2157 -0.0754957 25.9556 0.0805267 25.8128Z" fill="#3C434C"></path><path d="M201.304 44.8976L192.391 39.9531C192.159 39.8246 192.109 39.5131 192.288 39.318L198.717 32.3249C198.838 32.1934 199.057 32.2539 199.093 32.4288L199.626 35.003C206.516 33.84 210.799 29.9553 212.083 22.2471C215.142 33.6883 210.309 40.2635 201.083 42.0438L201.625 44.6614C201.663 44.845 201.468 44.9885 201.304 44.8976Z" fill="#3C434C"></path><path d="M104.327 15.2791H98.5235L99.392 11.4402H105.195L104.327 15.2791Z" fill="#3C434C"></path><path d="M114.469 27.9734C112.726 27.9207 111.093 28.7396 110.02 30.1141C109.291 31.0483 108.142 31.6344 106.866 31.5958C105.591 31.5571 104.479 30.9027 103.808 29.926C102.82 28.4893 101.239 27.5732 99.4966 27.5205L30.0063 25.4181C26.9696 25.3262 24.4335 27.7135 24.3416 30.7501L23.6139 54.8052C23.522 57.8418 25.9091 60.378 28.9458 60.4699L98.4362 62.5722C100.179 62.6249 101.812 61.8061 102.885 60.4316C103.614 59.4974 104.763 58.9112 106.039 58.9499C107.314 58.9885 108.426 59.643 109.097 60.6196C110.085 62.0564 111.665 62.9724 113.408 63.0252L182.898 65.1276C185.935 65.2194 188.471 62.8322 188.563 59.7955L189.291 35.7404C189.383 32.7038 186.996 30.1677 183.959 30.0758L114.469 27.9734Z" fill="black"></path><path d="M114.359 27.5802C112.616 27.5275 110.983 28.3464 109.91 29.7209C109.181 30.6551 108.032 31.2412 106.756 31.2026C105.481 31.1639 104.369 30.5095 103.698 29.5328C102.71 28.0961 101.13 27.18 99.3867 27.1273L29.8965 25.0249C26.8599 24.9331 24.3236 27.3203 24.2318 30.3569L23.504 54.412C23.4122 57.4486 25.7994 59.9848 28.836 60.0767L98.3263 62.179C100.069 62.2317 101.702 61.4129 102.775 60.0385C103.504 59.1043 104.653 58.5181 105.929 58.5567C107.204 58.5953 108.316 59.2498 108.987 60.2264C109.975 61.6632 111.556 62.5792 113.298 62.632L182.789 64.7344C185.825 64.8263 188.361 62.439 188.453 59.4024L189.181 35.3472C189.273 32.3106 186.886 29.7745 183.849 29.6826L114.359 27.5802Z" fill="#FFD102"></path><path d="M31.8118 47.1143C31.2971 46.6183 31.0535 45.919 31.0809 45.0163C31.0873 44.8052 31.1082 44.5848 31.1438 44.3551L32.2768 37.6578L34.1502 37.7144L33.0012 44.4633C32.9665 44.6659 32.9465 44.854 32.9412 45.0281C32.9119 45.9955 33.3311 46.4925 34.1987 46.5187C34.7801 46.5363 35.2447 46.3189 35.5925 45.866C35.9401 45.4134 36.1238 44.8653 36.1432 44.2222C36.1518 43.9398 36.1283 43.688 36.073 43.467C36.0175 43.2458 35.9277 42.9871 35.803 42.6908C35.6787 42.3846 35.5889 42.1186 35.5338 41.8926C35.4785 41.6668 35.4554 41.4075 35.4643 41.1152C35.4687 40.9691 35.4836 40.7893 35.5092 40.5753L37.354 40.6312C37.3426 40.6888 37.3353 40.7753 37.3318 40.8905C37.3254 41.1024 37.3502 41.3056 37.4064 41.5001C37.4625 41.6945 37.5485 41.9283 37.6643 42.2016C37.8161 42.5434 37.9305 42.865 38.0073 43.166C38.0841 43.4672 38.1166 43.8101 38.105 44.1951C38.0823 44.9461 37.8953 45.6054 37.5442 46.1729C37.1929 46.7403 36.7145 47.1763 36.109 47.4807C35.5034 47.7851 34.8145 47.9257 34.0423 47.9024C33.0699 47.873 32.3264 47.6101 31.8118 47.1143Z" fill="#3C434C"></path><path d="M71.0187 39.4324C71.5405 40.0022 71.7843 40.8554 71.75 41.9913C71.7188 43.0225 71.5054 44.1605 71.1099 45.4049C70.7145 46.6496 70.2352 47.7414 69.6725 48.6797L67.8564 48.6247C68.4135 47.5544 68.8805 46.3949 69.2571 45.1458C69.6334 43.8969 69.837 42.7725 69.8672 41.7729C69.8858 41.1576 69.7971 40.6982 69.6012 40.3939C69.4051 40.0896 69.0928 39.9309 68.6637 39.918C67.7865 39.8914 67.1574 40.4257 66.776 41.5206C66.3944 42.6157 66.18 43.9512 66.1323 45.5274C66.0977 46.6715 66.1814 47.6889 66.3835 48.5802L64.5531 48.5248C64.4452 48.0199 64.3603 47.5104 64.2986 46.9979C64.2376 46.4897 64.2169 45.9157 64.2363 45.2759C64.3749 40.6933 65.8932 38.4457 68.7915 38.5334C69.7543 38.5625 70.4967 38.8623 71.0187 39.4324Z" fill="#3C434C"></path><path d="M126.89 49.9912C126.376 49.4952 126.132 48.7958 126.159 47.8931C126.166 47.682 126.187 47.4616 126.222 47.2319L127.355 40.5346L129.229 40.5913L128.08 47.3402C128.045 47.5427 128.025 47.7309 128.02 47.9049C127.99 48.8724 128.409 49.3693 129.277 49.3956C129.859 49.4132 130.323 49.1957 130.671 48.7428C131.019 48.2902 131.202 47.7422 131.222 47.0991C131.23 46.8167 131.207 46.5649 131.151 46.3438C131.096 46.1227 131.006 45.8639 130.882 45.5677C130.757 45.2614 130.667 44.9955 130.612 44.7695C130.557 44.5436 130.534 44.2843 130.543 43.9921C130.547 43.8459 130.562 43.6662 130.588 43.4522L132.432 43.508C132.421 43.5656 132.414 43.6521 132.41 43.7673C132.404 43.9792 132.429 44.1824 132.485 44.3769C132.541 44.5713 132.627 44.8052 132.743 45.0784C132.895 45.4203 133.009 45.7418 133.086 46.0429C133.163 46.344 133.195 46.6869 133.183 47.0719C133.161 47.8229 132.974 48.4822 132.623 49.0497C132.271 49.6172 131.793 50.0532 131.187 50.3576C130.582 50.6619 129.893 50.8026 129.121 50.7792C128.148 50.7498 127.405 50.4869 126.89 49.9912Z" fill="#3C434C"></path><path d="M172.351 50.1986C172.009 50.784 171.53 51.2333 170.914 51.5461C170.299 51.8588 169.581 52.0031 168.761 51.9782L168.747 51.9779C167.794 51.949 167.051 51.6655 166.519 51.1276C165.986 50.5896 165.733 49.8958 165.758 49.0457C165.773 48.5823 165.87 48.114 166.051 47.6409C166.233 47.168 166.478 46.7237 166.786 46.3076L168.283 46.9684C168.112 47.2687 167.965 47.6101 167.844 47.9928C167.723 48.3757 167.657 48.7292 167.648 49.0532C167.635 49.4823 167.734 49.8216 167.946 50.0714C168.158 50.3211 168.493 50.4529 168.95 50.4667C169.57 50.4855 170.049 50.2662 170.387 49.8088C170.725 49.3516 170.905 48.7749 170.926 48.0789C170.94 47.6309 170.881 47.2165 170.749 46.8354C170.618 46.4547 170.421 46.0025 170.16 45.4793C169.881 44.9366 169.669 44.4531 169.524 44.0287C169.38 43.6045 169.316 43.1255 169.332 42.5915C169.34 42.3055 169.367 42.044 169.413 41.8067L171.3 41.8639C171.288 41.9596 171.279 42.0988 171.274 42.2811C171.257 42.8379 171.316 43.3203 171.452 43.7278C171.587 44.1357 171.794 44.6225 172.073 45.1883C172.361 45.7447 172.576 46.2341 172.716 46.6562C172.855 47.0787 172.917 47.5777 172.899 48.1538C172.876 48.9316 172.693 49.6132 172.351 50.1986Z" fill="#3C434C"></path><path d="M107.059 43.8764L105.811 44.6188C106.192 45.0937 106.373 45.6392 106.355 46.256C106.342 46.6778 106.251 47.0729 106.082 47.4412C105.914 47.8095 105.669 48.1041 105.347 48.3251C105.026 48.5462 104.65 48.6502 104.221 48.6373C103.773 48.6237 103.436 48.4809 103.211 48.2088C102.985 47.9368 102.88 47.5652 102.894 47.0942C102.917 46.3385 103.118 45.7479 103.499 45.3225C103.879 44.8969 104.499 44.5104 105.359 44.163C105.359 44.163 106.013 43.914 106.692 43.6193C107.176 43.3741 107.55 43.0945 107.812 42.7799C108.075 42.4656 108.213 42.0777 108.227 41.616C108.244 41.0494 108.024 40.586 107.568 40.226C107.111 39.866 106.482 39.6739 105.681 39.6497C105.109 39.6324 104.584 39.7115 104.107 39.8867C103.629 40.0621 103.247 40.3232 102.959 40.6696C102.672 41.0164 102.522 41.4231 102.507 41.8899C102.503 42.0358 102.526 42.2263 102.576 42.4613L104.247 42.1226C104.239 42.0624 104.237 41.9726 104.241 41.8528C104.249 41.5637 104.368 41.3352 104.598 41.1672C104.827 40.9995 105.137 40.9214 105.528 40.9332C105.823 40.9422 106.043 41.0038 106.188 41.1183C106.332 41.2327 106.402 41.39 106.395 41.5899C106.389 41.7999 106.319 41.9779 106.186 42.1239C106.053 42.27 105.848 42.4114 105.572 42.5482C105.296 42.685 104.892 42.8553 104.362 43.0593C103.279 43.4941 102.45 44.013 101.874 44.6157C101.297 45.2187 100.994 46.0158 100.964 47.0072C100.947 47.5601 101.056 48.062 101.291 48.5129C101.525 48.9637 101.879 49.3229 102.353 49.5899C102.827 49.8569 103.402 50.0009 104.079 50.0214C104.87 50.0454 105.581 49.8984 106.211 49.5807C106.841 49.263 107.339 48.8137 107.705 48.233C108.07 47.6523 108.264 46.9964 108.287 46.2657C108.315 45.3256 107.905 44.5293 107.059 43.8764Z" fill="#3C434C"></path><path d="M181.253 43.3243C181.004 42.878 180.643 42.5257 180.169 42.2681C179.695 42.0104 179.138 41.872 178.499 41.8526C177.765 41.8305 177.073 41.9908 176.424 42.3337C175.774 42.6768 175.246 43.1927 174.838 43.8818C174.431 44.5707 174.213 45.4015 174.183 46.374C174.14 47.804 174.837 48.8942 175.845 49.627C175.203 49.2672 174.025 49.2722 173.484 49.4753L172.971 50.9619C173.676 50.6588 177.008 50.1895 178.165 51.9621L179.938 52.0157C180.012 51.3643 179.546 50.7355 178.895 50.3194C177.783 49.6088 177.082 49.1994 176.678 48.614C175.393 46.7536 176.452 44.3885 176.84 43.9394C177.261 43.4532 177.766 43.2189 178.357 43.2368C178.777 43.2494 179.107 43.3878 179.347 43.6518C179.587 43.9158 179.699 44.2996 179.684 44.8028C179.663 45.5 179.475 46.0464 179.119 46.4425C178.764 46.8388 178.286 47.0277 177.685 47.0095C177.333 46.9989 177.026 46.9282 176.763 46.7983C176.693 47.1007 176.646 47.5294 176.753 47.9949C177.12 48.1889 177.542 48.2933 178.018 48.3077C178.704 48.3285 179.314 48.1872 179.849 47.8837C180.382 47.5802 180.803 47.161 181.11 46.6264C181.418 46.0919 181.581 45.4956 181.601 44.8378C181.618 44.2753 181.502 43.7709 181.253 43.3243Z" fill="#3C434C"></path><path d="M54.0469 41.7796C53.6008 41.2228 52.9583 40.9317 52.1195 40.9063C51.7191 40.8942 51.3357 40.947 50.9697 41.0647C50.9095 41.0841 50.8524 41.106 50.7952 41.128L50.4955 42.5084C50.8393 42.3446 51.1949 42.2667 51.5627 42.2778C51.9725 42.2903 52.2741 42.4198 52.4671 42.6658C52.66 42.9118 52.7487 43.2897 52.7333 43.7992C52.717 44.3381 52.6298 44.8577 52.4715 45.3579C52.3132 45.8581 52.0791 46.263 51.7692 46.5723C51.4592 46.8819 51.0848 47.0298 50.6465 47.0166C50.1982 47.003 49.8783 46.8584 49.6862 46.5829C49.4942 46.3073 49.4058 45.9149 49.4213 45.4054C49.4255 45.2682 49.4518 45.0239 49.5007 44.6722L50.5979 38.2123L48.7245 38.1556L47.6436 44.5519C47.5865 44.8576 47.5547 45.1258 47.5476 45.3561C47.5204 46.2588 47.7583 46.9844 48.2619 47.5328C48.7653 48.0813 49.5033 48.3704 50.4757 48.3998C51.3052 48.4249 52.0334 48.2472 52.6604 47.8674C53.2874 47.4874 53.7733 46.9564 54.1184 46.2744C54.4633 45.5927 54.6491 44.8194 54.6752 43.9547C54.7022 43.0615 54.4928 42.3363 54.0469 41.7796Z" fill="#3C434C"></path><path d="M93.2561 42.2654C92.8461 42.253 92.4605 42.3057 92.0991 42.4237C91.9571 42.4697 91.8184 42.5254 91.6841 42.5905L91.4252 43.9692C91.8236 43.7343 92.2482 43.6233 92.6993 43.637C93.5095 43.6615 93.8999 44.1689 93.87 45.1592C93.8438 46.0221 93.6473 46.7598 93.2806 47.3718C92.9136 47.9838 92.4061 48.28 91.7579 48.2604C91.3289 48.2474 91.0205 48.1056 90.8333 47.835C90.6457 47.5645 90.5596 47.179 90.5748 46.6789C90.5828 46.4141 90.6095 46.1597 90.6551 45.9158L91.3541 41.7346C91.4722 40.985 91.8979 40.6456 92.6324 40.6435C93.8225 40.6399 94.7912 41.2392 96.6601 40.7845L96.8956 39.3045C95.6729 39.7906 93.6301 39.3308 92.5314 39.2519C91.7322 39.1946 91.0569 39.4148 90.5106 39.8132C89.964 40.2115 89.615 40.8668 89.4635 41.7787L88.7984 45.7818C88.7532 46.0121 88.7265 46.267 88.7181 46.5465C88.69 47.472 88.9253 48.2123 89.4238 48.7677C89.9223 49.3231 90.6528 49.6154 91.6159 49.6445C92.4453 49.6696 93.1734 49.4959 93.8 49.1241C94.4268 48.7522 94.9124 48.231 95.2572 47.5608C95.6018 46.8907 95.7873 46.1264 95.8133 45.2679C95.8395 44.4 95.6271 43.6888 95.1764 43.1345C94.7256 42.5802 94.0856 42.2905 93.2561 42.2654Z" fill="#3C434C"></path><path d="M163.164 49.8436C162.053 49.1331 161.351 48.7237 160.947 48.1383C159.663 46.2778 160.721 43.9128 161.11 43.4636C161.53 42.9774 162.039 42.643 162.63 42.6609C163.067 42.6742 163.401 42.9108 163.554 43.0952C163.784 43.3732 163.892 43.7585 163.877 44.2514C163.861 44.7733 163.783 45.2475 163.641 45.6737C163.499 46.1 163.274 46.5213 162.966 46.9375L164.209 47.9474C165.202 46.9851 165.719 45.808 165.761 44.416C165.779 43.8439 165.67 43.3303 165.436 42.8746C165.202 42.4191 164.852 42.0603 164.388 41.798C163.923 41.536 163.332 41.394 162.662 41.3737C161.927 41.3514 161.343 41.515 160.693 41.858C160.043 42.2011 159.515 42.717 159.108 43.406C158.7 44.095 158.482 44.9258 158.452 45.8982C158.409 47.3282 159.106 48.4184 160.115 49.1512C159.473 48.7914 158.294 48.7965 157.754 48.9996L157.24 50.4861C157.946 50.1832 161.278 49.7137 162.434 51.4864L164.208 51.54C164.281 50.8886 163.815 50.2597 163.164 49.8436Z" fill="#3C434C"></path><path d="M80.1613 40.266C79.9122 39.8197 79.5507 39.4674 79.0768 39.2097C78.6027 38.952 78.0462 38.8135 77.4075 38.7943C76.6733 38.7721 75.9814 38.9325 75.3318 39.2753C74.6821 39.6185 74.1536 40.1343 73.7463 40.8234C73.339 41.5124 73.1206 42.3431 73.0912 43.3156C73.0479 44.7456 73.7446 45.8358 74.7536 46.5686C74.1115 46.2088 72.933 46.2138 72.3925 46.4169L71.879 47.9034C72.5845 47.6005 75.9165 47.1312 77.0731 48.9038L78.8463 48.9574C78.9199 48.306 78.4536 47.6771 77.8028 47.261C76.6915 46.5504 75.9896 46.141 75.5856 45.5557C74.3013 43.6952 75.3601 41.3301 75.7485 40.8811C76.1686 40.3947 76.6742 40.1605 77.2655 40.1784C77.6849 40.1911 78.0146 40.3294 78.2549 40.5934C78.4949 40.8574 78.6074 41.2413 78.5921 41.7444C78.5711 42.4416 78.3828 42.9881 78.0272 43.3842C77.6718 43.7804 77.1937 43.9694 76.5931 43.9511C76.2411 43.9405 75.934 43.8698 75.6712 43.7398C75.6015 44.0423 75.5539 44.4711 75.6608 44.9365C76.0284 45.1305 76.45 45.235 76.9259 45.2493C77.6124 45.2701 78.2225 45.1289 78.7566 44.8253C79.2905 44.5218 79.7111 44.1027 80.0184 43.5681C80.3256 43.0335 80.4892 42.4372 80.5091 41.7794C80.5261 41.217 80.4101 40.7125 80.1613 40.266Z" fill="#3C434C"></path><path d="M124.899 40.8035C124.543 40.4206 124.032 40.219 123.364 40.1988C122.354 40.1683 121.64 40.581 121.223 41.4365C121.188 40.9967 121.06 40.6707 120.837 40.4587C120.615 40.247 120.346 40.1362 120.032 40.1267C119.266 40.1035 118.065 40.4475 117.232 40.0563L116.734 41.3866C116.977 41.5563 117.332 41.6682 117.636 41.6951C118.031 41.7301 119.376 41.6526 119.471 41.6555C119.805 41.6656 120.151 41.8574 120.14 42.2197C120.137 42.315 120.13 42.3865 120.119 42.4338L119.805 44.2993L121.55 44.3521L121.844 42.6863C121.902 42.3446 122.019 42.081 122.197 41.8954C122.374 41.71 122.61 41.6216 122.906 41.6306C123.335 41.6436 123.543 41.8838 123.528 42.3508C123.525 42.4748 123.506 42.6078 123.473 42.7499L122.724 47.172C122.62 47.7886 122.41 48.2614 122.094 48.5908C121.779 48.9204 121.373 49.0773 120.878 49.0623C120.43 49.0488 120.102 48.9299 119.894 48.7058C119.686 48.4817 119.588 48.1811 119.599 47.8037C119.608 47.523 119.657 47.2365 119.747 46.944C119.834 46.6608 119.94 46.4083 120.066 46.185L118.36 45.8246C118.207 46.0828 118.078 46.3544 117.974 46.636C117.828 47.0289 117.75 47.4139 117.739 47.791C117.723 48.2942 117.826 48.7499 118.048 49.1585C118.269 49.5672 118.605 49.892 119.056 50.1332C119.507 50.3742 120.047 50.5044 120.676 50.5234C121.763 50.5563 122.644 50.2924 123.319 49.7318C123.995 49.1712 124.414 48.414 124.576 47.4604L125.361 42.807C125.386 42.598 125.401 42.441 125.404 42.336C125.423 41.6973 125.255 41.1863 124.899 40.8035Z" fill="#3C434C"></path><path d="M116.186 44.9462C116.046 44.524 115.832 44.0346 115.543 43.4782C115.265 42.9124 115.058 42.4255 114.922 42.0177C114.786 41.6102 114.727 41.1279 114.744 40.571C114.749 40.3886 114.758 40.2495 114.771 40.1537L112.883 40.0966C112.838 40.3339 112.811 40.5954 112.802 40.8813C112.786 41.4155 112.85 41.8945 112.995 42.3186C113.139 42.7429 113.351 43.2264 113.631 43.7692C113.892 44.2924 114.088 44.7445 114.22 45.1253C114.351 45.5064 114.41 45.9208 114.397 46.3688C114.376 47.0648 114.196 47.6415 113.858 48.0988C113.519 48.5561 113.04 48.7754 112.421 48.7567C111.963 48.7428 111.628 48.611 111.417 48.3613C111.204 48.1115 111.105 47.7722 111.118 47.3431C111.128 47.0191 111.193 46.6655 111.315 46.2827C111.41 45.9818 111.521 45.7075 111.648 45.4576L109.927 45.0939C109.769 45.361 109.633 45.641 109.522 45.9308C109.341 46.4039 109.243 46.8721 109.229 47.3356C109.203 48.1856 109.456 48.8794 109.989 49.4176C110.521 49.9554 111.264 50.2388 112.218 50.2677L112.232 50.2681C113.052 50.2929 113.769 50.1487 114.385 49.8361C115 49.5233 115.479 49.0739 115.821 48.4885C116.163 47.903 116.346 47.2215 116.37 46.4437C116.387 45.8677 116.326 45.3686 116.186 44.9462Z" fill="#3C434C"></path><path d="M139.314 45.5049C140.005 45.3733 140.547 45.101 140.942 44.6883C141.336 44.2757 141.542 43.7595 141.561 43.1397C141.575 42.682 141.47 42.2687 141.248 41.8992C141.025 41.53 140.698 41.2362 140.265 41.0178C139.833 40.7997 139.321 40.6815 138.73 40.6636C138.053 40.6431 137.442 40.7487 136.896 40.9803C136.35 41.212 135.917 41.5353 135.6 41.9502C135.282 42.3653 135.115 42.8253 135.1 43.3306C135.095 43.4794 135.109 43.6495 135.139 43.8399L136.971 43.8952C136.955 43.7989 136.951 43.644 136.958 43.4298C136.97 43.0293 137.127 42.7002 137.431 42.4421C137.735 42.1843 138.115 42.0621 138.573 42.0759C139.297 42.0978 139.649 42.4615 139.628 43.167C139.613 43.6628 139.465 44.0545 139.184 44.3417C138.904 44.6289 138.53 44.7655 138.063 44.7514L137.63 44.7383L137.343 46.1323L137.834 46.1472C138.282 46.1607 138.606 46.2714 138.805 46.4789C139.004 46.6865 139.096 47.0131 139.083 47.4587C139.064 48.0691 138.894 48.5755 138.572 48.9777C138.249 49.3801 137.821 49.5731 137.287 49.557C136.849 49.5437 136.53 49.4322 136.331 49.2225C136.132 49.013 136.038 48.7337 136.049 48.385C136.062 47.9517 136.18 47.4973 136.402 47.0222L134.718 46.6663C134.583 46.8907 134.471 47.128 134.383 47.3746C134.263 47.7106 134.198 48.0477 134.188 48.3868C134.166 49.1232 134.407 49.7367 134.913 50.2269C135.418 50.717 136.142 50.9814 137.086 51.0198C137.801 51.0414 138.454 50.9108 139.044 50.6281C139.635 50.3455 140.107 49.9404 140.462 49.413C140.817 48.8857 141.005 48.2779 141.026 47.5901C141.044 46.9894 140.908 46.5202 140.617 46.1818C140.327 45.8436 139.892 45.618 139.314 45.5049Z" fill="#3C434C"></path><path d="M147.276 49.3631C146.165 48.6526 145.463 48.2432 145.059 47.6578C143.775 45.7973 144.833 43.4322 145.222 42.9831C145.642 42.4968 146.151 42.1625 146.742 42.1803C147.179 42.1936 147.513 42.4302 147.666 42.6147C147.896 42.8927 148.004 43.2779 147.989 43.7708C147.973 44.2928 147.895 44.767 147.753 45.1932C147.615 45.6082 147.397 46.0186 147.101 46.4243L148.4 47.3867C149.34 46.4393 149.833 45.2894 149.874 43.9355C149.891 43.3634 149.782 42.8497 149.548 42.394C149.314 41.9385 148.964 41.5797 148.5 41.3174C148.035 41.0554 147.444 40.9134 146.774 40.8931C146.039 40.8708 145.455 41.0345 144.805 41.3775C144.155 41.7205 143.627 42.2364 143.22 42.9254C142.812 43.6145 142.594 44.4452 142.564 45.4177C142.521 46.8477 143.218 47.9379 144.227 48.6706C143.585 48.3109 142.406 48.3159 141.866 48.519L141.352 50.0055C142.058 49.7026 145.39 49.2332 146.546 51.0058L148.32 51.0594C148.393 50.408 147.927 49.7791 147.276 49.3631Z" fill="#3C434C"></path><path d="M156.719 41.9023C156.214 41.4243 155.518 41.1717 154.631 41.1449C154.002 41.1259 153.414 41.2322 152.868 41.4637C152.322 41.6954 151.88 42.0278 151.542 42.4614C151.205 42.8949 151.027 43.3977 151.01 43.9697C151.007 44.0869 151.012 44.2042 151.026 44.3207L152.878 44.3767C152.877 44.3141 152.877 44.2503 152.879 44.1836C152.894 43.6785 153.044 43.2822 153.33 42.9949C153.615 42.7079 154.006 42.5717 154.501 42.5866C154.883 42.5982 155.159 42.7045 155.329 42.9051C155.499 43.1059 155.579 43.3971 155.568 43.7783C155.563 43.9213 155.555 44.0309 155.543 44.1068L154.83 48.2884C154.736 48.8666 154.544 49.3064 154.253 49.6075C153.963 49.9087 153.593 50.0523 153.145 50.0388C152.716 50.0257 152.405 49.9074 152.211 49.6837C152.018 49.46 151.927 49.1594 151.938 48.782C151.946 48.5207 151.992 48.2412 152.078 47.9437C152.158 47.6636 152.259 47.4152 152.38 47.1961L150.689 46.8386C150.301 47.4693 150.097 48.1128 150.078 48.7693C150.054 49.5433 150.297 50.1852 150.807 50.6944C151.316 51.2034 152.028 51.4721 152.944 51.4998C153.992 51.5315 154.837 51.2687 155.479 50.7123C156.121 50.1556 156.524 49.3904 156.687 48.4171L157.385 44.2627C157.419 44.0919 157.438 43.9304 157.443 43.7778C157.466 43.0055 157.225 42.3805 156.719 41.9023Z" fill="#3C434C"></path><path d="M60.959 46.7514C59.8477 46.0409 59.1458 45.6314 58.7417 45.0461C57.4575 43.1855 58.5163 40.8205 58.9046 40.3713C59.3248 39.8851 59.8334 39.5508 60.4246 39.5687C60.8617 39.5819 61.1963 39.8186 61.3491 40.0029C61.5792 40.2809 61.6869 40.6662 61.6719 41.1591C61.6562 41.681 61.5774 42.1553 61.4357 42.5815C61.2977 42.9965 61.0798 43.4069 60.7839 43.8126L62.0829 44.775C63.0233 43.8276 63.5154 42.6777 63.5564 41.3238C63.5737 40.7517 63.4651 40.238 63.2309 39.7823C62.9964 39.3268 62.6472 38.968 62.1827 38.7057C61.7183 38.4437 61.127 38.3017 60.4564 38.2814C59.7222 38.2592 59.1375 38.4228 58.488 38.7658C57.8382 39.1088 57.3098 39.6247 56.9025 40.3137C56.4952 41.0027 56.2768 41.8335 56.2473 42.806C56.2041 44.236 56.9007 45.3262 57.9098 46.0589C57.2676 45.6992 56.0891 45.7042 55.5487 45.9073L55.0352 47.3938C55.7407 47.0909 59.0727 46.6215 60.2292 48.3941L62.0025 48.4478C62.0761 47.7963 61.6097 47.1674 60.959 46.7514Z" fill="#3C434C"></path><path d="M87.3251 44.0731C87.1852 43.6509 86.971 43.1616 86.6824 42.6051C86.4037 42.0394 86.1966 41.5525 86.0611 41.1447C85.9254 40.7371 85.8662 40.2548 85.8831 39.698C85.8886 39.5156 85.8974 39.3765 85.91 39.2807L84.0224 39.2236C83.9769 39.4609 83.95 39.7224 83.9413 40.0084C83.9252 40.5424 83.9894 41.0214 84.1341 41.4455C84.2786 41.87 84.4905 42.3534 84.77 42.8961C85.0308 43.4194 85.2272 43.8715 85.3588 44.2523C85.4904 44.6334 85.5494 45.0478 85.5358 45.4958C85.5148 46.1918 85.335 46.7685 84.9969 47.2257C84.6585 47.6831 84.1795 47.9024 83.5599 47.8836C83.1023 47.8698 82.7674 47.738 82.5556 47.4882C82.3435 47.2385 82.2442 46.8992 82.2572 46.47C82.267 46.1461 82.3325 45.7925 82.4539 45.4097C82.5491 45.1088 82.6605 44.8345 82.7868 44.5846L81.066 44.2209C80.9076 44.4879 80.7722 44.7679 80.661 45.0578C80.4797 45.5309 80.3821 45.9992 80.368 46.4625C80.3424 47.3126 80.5956 48.0064 81.1281 48.5445C81.6604 49.0824 82.4033 49.3659 83.3568 49.3947L83.3711 49.3951C84.1909 49.4199 84.9085 49.2757 85.524 48.963C86.1394 48.6502 86.6182 48.2009 86.9603 47.6155C87.3023 47.03 87.4853 46.3485 87.5088 45.5707C87.5263 44.9946 87.4648 44.4956 87.3251 44.0731Z" fill="#3C434C"></path><path d="M46.2425 42.83C46.1026 42.4079 45.8884 41.9185 45.5999 41.3621C45.3211 40.7963 45.114 40.3094 44.9785 39.9016C44.8427 39.4941 44.7836 39.0117 44.8004 38.4549C44.8059 38.2725 44.8149 38.1335 44.8274 38.0377L42.9397 37.9805C42.8943 38.2178 42.8673 38.4793 42.8587 38.7653C42.8425 39.2994 42.9067 39.7783 43.0514 40.2024C43.1959 40.6269 43.4079 41.1103 43.6874 41.653C43.9482 42.1763 44.1446 42.6284 44.2762 43.0092C44.4078 43.3903 44.4668 43.8047 44.4533 44.2527C44.4321 44.9487 44.2524 45.5254 43.9143 45.9826C43.5758 46.44 43.0969 46.6593 42.4773 46.6405C42.0197 46.6267 41.6848 46.4949 41.473 46.2452C41.2609 45.9953 41.1617 45.656 41.1746 45.227C41.1844 44.903 41.2499 44.5494 41.3713 44.1666C41.4665 43.8657 41.5779 43.5914 41.7042 43.3415L39.9833 42.9778C39.8251 43.2449 39.6896 43.5248 39.5785 43.8147C39.397 44.2878 39.2994 44.756 39.2854 45.2195C39.2597 46.0695 39.5129 46.7633 40.0455 47.3014C40.5778 47.8393 41.3206 48.1227 42.2741 48.1516L42.2884 48.1521C43.1083 48.1768 43.8258 48.0327 44.4414 47.72C45.0567 47.4071 45.5355 46.9578 45.8776 46.3724C46.2197 45.7869 46.4027 45.1054 46.4262 44.3276C46.4436 43.7516 46.3823 43.2525 46.2425 42.83Z" fill="#3C434C"></path></svg>